<svg id="e7V8WefdqjJ1" xmlns="http://www.w3.org/2000/svg" xmlns:xlink="http://www.w3.org/1999/xlink" viewBox="0 0 1920 1080" shape-rendering="geometricPrecision" text-rendering="geometricPrecision"><rect width="257.990883" height="1070.335978" rx="0" ry="0" transform="matrix(.713168 0 0 1.009029 0.00002-.000021)" fill="#ff000d" stroke-width="0"/><rect width="1920" height="5.470201" rx="0" ry="0" transform="translate(0 481.684451)" fill="#d2dbed" stroke-width="0"/><rect width="1920" height="5.470201" rx="0" ry="0" transform="translate(-.293602 790.073106)" fill="#d2dbed" stroke-width="0"/><g transform="translate(-37.133056 5.000001)"><g transform="matrix(.75 0 0 0.75 33.136477 0.032499)"><g><line x1="-96" y1="0" x2="4" y2="0" transform="matrix(.866025 0.5-5 8.660254 132.53134 77.13)" fill="#3f5787" stroke="#fbfbfb" stroke-width="3"/><line x1="-96" y1="0" x2="4" y2="0" transform="matrix(.866025-.5 5 8.660254 204.234773 31.13)" fill="#3f5787" stroke="#fbfbfb" stroke-width="3"/></g><g transform="translate(0 62)"><line x1="-96" y1="0" x2="4" y2="0" transform="matrix(.866025 0.5-5 8.660254 132.53134 77.13)" fill="#3f5787" stroke="#fbfbfb" stroke-width="3"/><line x1="-96" y1="0" x2="4" y2="0" transform="matrix(.866025-.5 5 8.660254 204.234773 31.13)" fill="#3f5787" stroke="#fbfbfb" stroke-width="3"/></g><g transform="translate(0 124)"><line x1="-96" y1="0" x2="4" y2="0" transform="matrix(.866025 0.5-5 8.660254 132.53134 77.13)" fill="#3f5787" stroke="#fbfbfb" stroke-width="3"/><line x1="-96" y1="0" x2="4" y2="0" transform="matrix(.866025-.5 5 8.660254 204.234773 31.13)" fill="#3f5787" stroke="#fbfbfb" stroke-width="3"/></g></g><g transform="matrix(.75 0 0 0.75 33.386486 2.986386)"><ellipse rx="66.99735" ry="67.382643" transform="matrix(1.322962 0 0 1.293334 128.995442 324.172522)" fill="#fff" stroke-width="0"/><ellipse rx="66.99735" ry="67.382643" transform="matrix(.943852 0 0 0.930553 128.995442 322.98504)" fill="#fffa00" stroke="#f00" stroke-width="10"/></g></g><ellipse rx="69.505242" ry="75.970846" transform="matrix(.695416 0 0 0.631501 92 638.060513)" fill="#fdfdfd"/><ellipse rx="69.505242" ry="75.970846" transform="matrix(.695416 0 0 0.631501 92 946.828486)" fill="#fdfdfd"/></svg>
