<svg id="eEVWpB6jqUL1" xmlns="http://www.w3.org/2000/svg" xmlns:xlink="http://www.w3.org/1999/xlink" viewBox="0 0 160 300" shape-rendering="geometricPrecision" text-rendering="geometricPrecision" project-id="265028325f7c40adb7b2aa533c983936" export-id="147a4a4d9a4946099d0560c7787dde11" cached="false"><g transform="translate(-49.972099-12.678474)"><g transform="matrix(.75 0 0 0.75 33.136477 0.032499)"><g><line x1="-96" y1="0" x2="4" y2="0" transform="matrix(.866025 0.5-5 8.660254 132.53134 77.13)" fill="#3f5787" stroke="#fbfbfb" stroke-width="3"/><line x1="-96" y1="0" x2="4" y2="0" transform="matrix(.866025-.5 5 8.660254 204.234773 31.13)" fill="#3f5787" stroke="#fbfbfb" stroke-width="3"/></g><g transform="translate(0 62)"><line x1="-96" y1="0" x2="4" y2="0" transform="matrix(.866025 0.5-5 8.660254 132.53134 77.13)" fill="#3f5787" stroke="#fbfbfb" stroke-width="3"/><line x1="-96" y1="0" x2="4" y2="0" transform="matrix(.866025-.5 5 8.660254 204.234773 31.13)" fill="#3f5787" stroke="#fbfbfb" stroke-width="3"/></g><g transform="translate(0 124)"><line x1="-96" y1="0" x2="4" y2="0" transform="matrix(.866025 0.5-5 8.660254 132.53134 77.13)" fill="#3f5787" stroke="#fbfbfb" stroke-width="3"/><line x1="-96" y1="0" x2="4" y2="0" transform="matrix(.866025-.5 5 8.660254 204.234773 31.13)" fill="#3f5787" stroke="#fbfbfb" stroke-width="3"/></g></g><g transform="matrix(.75 0 0 0.75 33.386486 2.986386)"><ellipse rx="66.99735" ry="67.382643" transform="matrix(1.322962 0 0 1.293334 128.995442 324.172522)" fill="#fff" stroke-width="0"/><ellipse rx="66.99735" ry="67.382643" transform="matrix(.943852 0 0 0.930553 128.995442 322.98504)" fill="#fffa00" stroke="#f00" stroke-width="10"/></g></g></svg>
