<svg id="e45tauKWHYh1" xmlns="http://www.w3.org/2000/svg" xmlns:xlink="http://www.w3.org/1999/xlink" viewBox="0 0 120 100" shape-rendering="geometricPrecision" text-rendering="geometricPrecision"><g transform="translate(-46.571094-4.987709)"><g transform="matrix(.777205 0 0 0.875337 257.553783 11.126852)"><rect width="33.169021" height="65.332919" rx="0" ry="0" transform="matrix(.998766 0 0.83882 0.999667 1114.151137 23.994418)" fill="#fbfbfb" stroke-width="0"/><rect width="33.169021" height="65.332919" rx="0" ry="0" transform="matrix(1 0 0.8391-1 1114.091951 154.51646)" fill="#fbfbfb" stroke-width="0"/></g><g transform="matrix(.777205 0 0 0.875337 311.553783 11.126852)"><rect width="33.169021" height="65.332919" rx="0" ry="0" transform="matrix(.998766 0 0.83882 0.999667 1114.151137 23.994418)" fill="#fbfbfb" stroke-width="0"/><rect width="33.169021" height="65.332919" rx="0" ry="0" transform="matrix(1 0 0.8391-1 1114.091951 154.51646)" fill="#fbfbfb" stroke-width="0"/></g><g transform="matrix(.777205 0 0 0.875337 204.553783 11.126852)"><rect width="33.169021" height="65.332919" rx="0" ry="0" transform="matrix(.998766 0 0.83882 0.999667 1114.151137 23.994418)" fill="#fbfbfb" stroke-width="0"/><rect width="33.169021" height="65.332919" rx="0" ry="0" transform="matrix(1 0 0.8391-1 1114.091951 154.51646)" fill="#fbfbfb" stroke-width="0"/></g></g><g transform="matrix(.452836 0 0 0.436777-2.78699-13.95866)"><rect width="94.484168" height="58.733402" rx="0" ry="0" transform="matrix(.310713 0 1.074057 1.533913 27.426324 55.726984)" fill="#fff" stroke-width="0"/><rect width="94.484168" height="58.733402" rx="0" ry="0" transform="matrix(.310713 0-1.074057 1.533913 90.509372 145.818912)" fill="#fff" stroke-width="0"/></g><g transform="matrix(.452836 0 0 0.436777 25.127072-13.958676)"><rect width="94.484168" height="58.733402" rx="0" ry="0" transform="matrix(.310713 0 1.074057 1.533913 27.426324 55.726984)" fill="#fff" stroke-width="0"/><rect width="94.484168" height="58.733402" rx="0" ry="0" transform="matrix(.310713 0-1.074057 1.533913 90.509372 145.818912)" fill="#fff" stroke-width="0"/></g><g transform="matrix(.452836 0 0 0.436777 55.087346-13.958669)"><rect width="94.484168" height="58.733402" rx="0" ry="0" transform="matrix(.310713 0 1.074057 1.533913 27.426324 55.726984)" fill="#fff" stroke-width="0"/><rect width="94.484168" height="58.733402" rx="0" ry="0" transform="matrix(.310713 0-1.074057 1.533913 90.509372 145.818912)" fill="#fff" stroke-width="0"/></g></svg>
