<svg id="eah1qkseNTV1" xmlns="http://www.w3.org/2000/svg" xmlns:xlink="http://www.w3.org/1999/xlink" viewBox="0 0 200 130" shape-rendering="geometricPrecision" text-rendering="geometricPrecision" project-id="5d3e165802214f5891beedb21f6d40d9" export-id="638eb68732df4b3ab2a0387b655e2227" cached="false"><g transform="translate(-714.021057-20.258398)"><g transform="translate(0 0.000001)"><rect width="100.287017" height="40.114806" rx="0" ry="0" transform="matrix(.485349-.485349 0.622019 0 727.589398 131.578719)" fill="#fff" stroke-width="0"/><rect width="100.287017" height="40.114806" rx="0" ry="0" transform="matrix(.498479 0.498479-.622019 0 751.224782 32.956741)" fill="#fff" stroke-width="0"/></g><g transform="translate(49.947633 0.680001)"><rect width="100.287017" height="40.114806" rx="0" ry="0" transform="matrix(.485349-.485349 0.622019 0 727.589398 131.578719)" fill="#fff" stroke-width="0"/><rect width="100.287017" height="40.114806" rx="0" ry="0" transform="matrix(.498479 0.498479-.622019 0 751.224782 32.956741)" fill="#fff" stroke-width="0"/></g><g transform="translate(100.553663 1.360001)"><rect width="100.287017" height="40.114806" rx="0" ry="0" transform="matrix(.485349-.485349 0.622019 0 727.589398 131.578719)" fill="#fff" stroke-width="0"/><rect width="100.287017" height="40.114806" rx="0" ry="0" transform="matrix(.498479 0.498479-.622019 0 751.224782 32.956741)" fill="#fff" stroke-width="0"/></g></g></svg>
